<?xml version="1.0" standalone="no"?>
<!DOCTYPE svg PUBLIC "-//W3C//DTD SVG 20010904//EN"
 "http://www.w3.org/TR/2001/REC-SVG-20010904/DTD/svg10.dtd">
<svg version="1.0" xmlns="http://www.w3.org/2000/svg"
 width="16.000000pt" height="16.000000pt" viewBox="0 0 16.000000 16.000000"
 preserveAspectRatio="xMidYMid meet">

<g transform="translate(0.000000,16.000000) scale(0.100000,-0.100000)"
fill="#000000" stroke="none">
<path d="M4 147 c-3 -8 -4 -43 -2 -78 l3 -64 75 0 75 0 0 75 0 75 -73 3 c-55
2 -74 -1 -78 -11z m60 -53 c9 -26 16 -34 20 -24 3 8 10 28 16 44 14 37 26 24
33 -36 8 -57 -8 -74 -18 -20 l-8 37 -11 -34 c-17 -47 -30 -49 -43 -4 l-10 38
-2 -32 c0 -18 -6 -33 -11 -33 -9 0 -6 62 6 99 6 19 11 12 28 -35z"/>
</g>
</svg>
